<svg width="128" height="128" viewBox="0 0 128 128" xmlns="http://www.w3.org/2000/svg" fill="none">
  <defs>
    <linearGradient id="flame" x1="50%" y1="100%" x2="50%" y2="0%">
      <stop offset="0%" stop-color="#ea580c"/>
      <stop offset="50%" stop-color="#f59e0b"/>
      <stop offset="100%" stop-color="#fbbf24"/>
    </linearGradient>
    <linearGradient id="inner" x1="50%" y1="100%" x2="50%" y2="0%">
      <stop offset="0%" stop-color="#f97316"/>
      <stop offset="100%" stop-color="#fde68a"/>
    </linearGradient>
  </defs>
  <rect width="128" height="128" rx="24" fill="#1a1410"/>
  <path d="M64 18c0 0-28 24-28 52 0 22 12.5 40 28 40s28-18 28-40c0-28-28-52-28-52z" fill="url(#flame)"/>
  <path d="M64 50c0 0-14 14-14 30 0 12 6.3 20 14 20s14-8 14-20c0-16-14-30-14-30z" fill="url(#inner)"/>
</svg>
